HIERARCHY
ROOT Hips
{
	OFFSET -0.001795 -0.223333 0.028219
	CHANNELS 6 Xposition Yposition Zposition Zrotation Yrotation Xrotation 
	JOINT LeftUpLeg
	{
		OFFSET 0.069520 -0.091406 -0.006815
		CHANNELS 3 Zrotation Yrotation Xrotation
		JOINT LeftLeg
		{
			OFFSET 0.034277 -0.375199 -0.004496
			CHANNELS 3 Zrotation Yrotation Xrotation
			JOINT LeftFoot
			{
				OFFSET -0.013596 -0.397961 -0.043693
				CHANNELS 3 Zrotation Yrotation Xrotation
				JOINT LeftToe
				{
					OFFSET 0.026358 -0.055791 0.119288
					CHANNELS 3 Zrotation Yrotation Xrotation
					End Site
					{
						OFFSET 0.000000 0.000000 0.000000
					}
				}
			}
		}
	}
	JOINT RightUpLeg
	{
		OFFSET -0.067670 -0.090522 -0.004320
		CHANNELS 3 Zrotation Yrotation Xrotation
		JOINT RightLeg
		{
			OFFSET -0.038290 -0.382569 -0.008850
			CHANNELS 3 Zrotation Yrotation Xrotation
			JOINT RightFoot
			{
				OFFSET 0.015774 -0.398415 -0.042312
				CHANNELS 3 Zrotation Yrotation Xrotation
				JOINT RightToe
				{
					OFFSET -0.025372 -0.048144 0.123348
					CHANNELS 3 Zrotation Yrotation Xrotation
					End Site
					{
						OFFSET 0.000000 0.000000 0.000000
					}
				}
			}
		}
	}
	JOINT Spine
	{
		OFFSET -0.002533 0.108963 -0.026696
		CHANNELS 3 Zrotation Yrotation Xrotation
		JOINT Spine1
		{
			OFFSET 0.005487 0.135180 0.001092
			CHANNELS 3 Zrotation Yrotation Xrotation
			JOINT Spine2
			{
				OFFSET 0.001457 0.052922 0.025425
				CHANNELS 3 Zrotation Yrotation Xrotation
				JOINT Neck
				{
					OFFSET -0.002778 0.213870 -0.042857
					CHANNELS 3 Zrotation Yrotation Xrotation
					JOINT Head
					{
						OFFSET 0.005152 0.064970 0.051349
						CHANNELS 3 Zrotation Yrotation Xrotation
						End Site
						{
							OFFSET 0.000000 0.000000 0.000000
						}
					}
				}
				JOINT LeftShoulder
				{
					OFFSET 0.078845 0.121749 -0.034090
					CHANNELS 3 Zrotation Yrotation Xrotation
					JOINT LeftArm
					{
						OFFSET 0.090977 0.030469 -0.008868
						CHANNELS 3 Zrotation Yrotation Xrotation
						JOINT LeftForeArm
						{
							OFFSET 0.259612 -0.012772 -0.027456
							CHANNELS 3 Zrotation Yrotation Xrotation
							JOINT LeftHand
							{
								OFFSET 0.249234 0.008986 -0.001171
								CHANNELS 3 Zrotation Yrotation Xrotation
								End Site
								{
									OFFSET 0.000000 0.000000 0.000000
								}
							}
						}
					}
				}
				JOINT RightShoulder
				{
					OFFSET -0.081759 0.118833 -0.038615
					CHANNELS 3 Zrotation Yrotation Xrotation
					JOINT RightArm
					{
						OFFSET -0.096012 0.032551 -0.009143
						CHANNELS 3 Zrotation Yrotation Xrotation
						JOINT RightForeArm
						{
							OFFSET -0.253742 -0.013329 -0.021401
							CHANNELS 3 Zrotation Yrotation Xrotation
							JOINT RightHand
							{
								OFFSET -0.255298 0.007772 -0.005559
								CHANNELS 3 Zrotation Yrotation Xrotation
								End Site
								{
									OFFSET 0.000000 0.000000 0.000000
								}
							}
						}
					}
				}
			}
		}
	}
}
MOTION
Frames: 9
Frame Time: 0.050000
0.000000 0.944081 0.000000 -1.687645 -4.864295 3.432486 2.988916 0.071206 1.514092 -0.422742 0.120275 -2.389547 4.036548 9.146372 2.723546 0.000000 0.000000 0.000000 -3.973218 0.415213 -3.913433 2.411666 -0.170948 2.611512 -3.656011 -10.689040 5.070179 0.000000 0.000000 0.000000 -2.112381 -0.037641 3.729470 3.826404 -0.763503 -18.120848 0.074397 1.370004 25.963279 2.254568 -0.115330 -23.809828 0.000000 0.000000 0.000000 -23.853620 1.439840 -1.814957 -54.210174 -6.982551 -5.656746 -13.115327 -25.893996 4.512586 0.000000 0.000000 0.000000 18.222921 5.465625 1.475928 60.936264 9.472602 -3.436698 4.721117 27.158285 2.270307 0.000000 0.000000 0.000000 
0.000595 0.943142 0.004752 -1.945642 -5.098935 4.155911 3.439329 0.099126 2.158958 -0.369150 0.170402 -4.125472 4.578041 10.088202 1.926798 0.000000 0.000000 0.000000 -3.588157 0.461216 -4.516048 1.935198 -0.108975 2.788703 -4.529474 -12.424472 4.549245 0.000000 0.000000 0.000000 -2.328931 -0.010623 3.228501 3.872545 -0.781713 -18.052971 0.025479 -0.035695 26.473822 2.008335 -0.201742 -24.246302 0.000000 0.000000 0.000000 -23.819365 3.278546 -2.443025 -54.754296 -6.808805 -5.905650 -13.601763 -26.474472 4.866324 0.000000 0.000000 0.000000 17.756271 5.972757 1.376823 61.960386 8.290326 -4.155537 4.244166 28.507600 2.213732 0.000000 0.000000 0.000000 
0.000609 0.943245 0.011062 -1.338294 -5.507201 4.407624 3.492238 0.043905 1.310049 -1.164919 0.186899 -2.116824 4.629401 10.058090 1.081366 0.000000 0.000000 0.000000 -4.160500 0.509802 -5.127488 1.999295 -0.101455 3.244078 -4.736959 -12.861586 4.468231 0.000000 0.000000 0.000000 -2.541017 0.000252 3.461490 4.185686 -0.764974 -19.733832 -0.219934 -0.188284 28.284057 1.645596 -0.033464 -25.116740 0.000000 0.000000 0.000000 -23.324122 3.132537 -2.101841 -55.068815 -6.895282 -6.097890 -14.077418 -25.660984 4.863404 0.000000 0.000000 0.000000 18.782783 5.644461 1.077741 61.080225 7.760803 -4.576413 3.621050 28.247848 2.044507 0.000000 0.000000 0.000000 
-0.000203 0.942298 0.019855 -1.334543 -5.445031 5.651469 3.249184 -0.001560 0.722729 -1.052825 0.165353 -1.723566 4.785122 10.141349 -0.431384 0.000000 0.000000 0.000000 -4.055876 0.611591 -6.470489 1.857342 -0.069998 3.720373 -5.334958 -13.971226 3.636034 0.000000 0.000000 0.000000 -2.671992 0.027568 2.918639 4.504176 -0.851597 -19.571837 -0.471282 -1.158418 28.423475 1.100867 0.129105 -25.112688 0.000000 0.000000 0.000000 -22.723321 3.562474 -2.061666 -55.426094 -6.271895 -6.397120 -15.754588 -26.025480 5.407682 0.000000 0.000000 0.000000 18.876129 6.041348 1.030329 60.974896 6.651331 -5.107962 3.962927 29.086267 2.135236 0.000000 0.000000 0.000000 
-0.002021 0.940656 0.031295 -1.122263 -5.324794 5.839266 3.086313 -0.017713 0.474771 -0.734810 0.095235 -0.308795 5.016172 10.458162 -1.538624 0.000000 0.000000 0.000000 -4.073952 0.638912 -6.862216 1.464209 -0.002118 4.322174 -5.520981 -14.144167 2.529286 0.000000 0.000000 0.000000 -2.569476 0.011582 3.627077 4.547286 -0.914538 -18.781585 -0.562081 -1.102853 27.931237 0.817317 0.281594 -24.248745 0.000000 0.000000 0.000000 -22.526310 3.048789 -1.803989 -54.800227 -5.729861 -6.534141 -16.531606 -27.073892 5.818689 0.000000 0.000000 0.000000 19.317532 5.569419 0.766148 60.643196 5.601782 -5.546244 4.350847 29.330867 2.245674 0.000000 0.000000 0.000000 
-0.004884 0.938208 0.045866 -1.115826 -5.091153 6.863459 3.369405 -0.093931 -0.464962 -0.752647 0.059221 1.235530 5.316910 10.852727 -3.213127 0.000000 0.000000 0.000000 -3.941087 0.727540 -7.994704 0.882591 0.135214 5.929629 -5.541912 -14.146719 2.196933 0.000000 0.000000 0.000000 -3.131178 0.049994 4.300063 5.237140 -1.009383 -19.850144 -0.332251 -1.118553 28.595392 0.773759 0.375757 -25.190974 0.000000 0.000000 0.000000 -21.998055 3.346560 -1.990210 -55.400008 -5.794024 -6.569605 -17.516975 -27.067994 6.081805 0.000000 0.000000 0.000000 18.977891 5.728969 0.945640 60.025194 5.364884 -5.688824 5.285968 28.916524 2.441746 0.000000 0.000000 0.000000 
-0.008228 0.934913 0.064506 -1.062749 -4.927131 7.761833 3.033252 -0.181036 -1.719831 -0.590559 -0.010942 3.295186 5.738701 11.722415 -3.726467 0.000000 0.000000 0.000000 -3.437482 0.820672 -9.030188 0.542637 0.287812 8.305052 -5.959782 -14.846522 0.851679 0.000000 0.000000 0.000000 -2.876138 0.032555 4.889390 4.893851 -0.927047 -19.573774 -0.256784 -0.698032 28.538435 0.889335 0.398231 -25.210517 0.000000 0.000000 0.000000 -22.038923 3.406092 -2.187243 -55.053506 -5.294603 -6.744726 -18.107513 -28.062511 6.456861 0.000000 0.000000 0.000000 18.842260 5.191248 0.821954 60.317894 4.730172 -6.046274 6.136617 28.814678 2.675183 0.000000 0.000000 0.000000 
-0.011497 0.930519 0.088054 -0.308206 -4.761895 8.266538 2.074343 -0.212418 -2.147365 -0.523429 -0.085994 6.236196 5.808679 11.578290 -5.831458 0.000000 0.000000 0.000000 -3.952216 0.849567 -9.592816 0.975977 0.393405 12.515459 -5.575446 -13.242827 -2.308583 0.000000 0.000000 0.000000 -3.527004 0.082687 6.656248 4.602267 -0.768515 -20.517094 -0.271988 -0.261755 28.589764 0.771369 0.598947 -25.924672 0.000000 0.000000 0.000000 -21.524247 3.097899 -2.139638 -54.255393 -5.221351 -6.681976 -19.697534 -29.734135 7.281589 0.000000 0.000000 0.000000 19.050821 4.955494 0.849882 59.731915 3.328314 -6.703636 8.349498 29.180593 3.283353 0.000000 0.000000 0.000000 
-0.014198 0.923221 0.116976 0.238053 -4.991244 8.836770 0.769188 -0.219644 -2.265728 -0.499897 -0.138258 8.909395 6.200294 12.276653 -8.003427 0.000000 0.000000 0.000000 -4.445951 0.960514 -11.320784 1.991366 0.409070 18.108811 -6.229440 -13.952667 -6.569841 0.000000 0.000000 0.000000 -4.393451 0.182924 7.300547 4.979558 -0.862106 -20.485073 -0.662380 0.299287 29.193595 0.010143 1.166556 -27.093788 0.000000 0.000000 0.000000 -22.434592 4.061808 -2.912574 -53.156330 -5.180065 -6.665352 -20.150453 -31.940138 7.999100 0.000000 0.000000 0.000000 19.591600 5.197904 1.118798 60.552763 4.089323 -6.493464 7.499663 27.849783 2.968360 0.000000 0.000000 0.000000 
